<?xml version="1.0" encoding="utf-8"?>
<!-- Generator: Adobe Illustrator 17.0.0, SVG Export Plug-In . SVG Version: 6.00 Build 0)  -->
<!DOCTYPE svg PUBLIC "-//W3C//DTD SVG 1.1//EN" "http://www.w3.org/Graphics/SVG/1.1/DTD/svg11.dtd">
<svg version="1.1" xmlns="http://www.w3.org/2000/svg" xmlns:xlink="http://www.w3.org/1999/xlink" x="0px" y="0px" width="800px"
	 height="800px" viewBox="0 0 800 800" enable-background="new 0 0 800 800" xml:space="preserve">
<g id="_x31_">
	<path fill="#D3D2D0" d="M746.798,621.686c0,20.494-167.894,37.108-374.997,37.108c-207.106,0-375.003-16.614-375.003-37.108
		c0-20.494,167.897-37.109,375.003-37.109C578.904,584.577,746.798,601.191,746.798,621.686z"/>
</g>
<g id="_x32_">
	<g>
		<path fill="#DDCAB8" d="M633.161,174.493c0-9.773,4.23-18.543,10.946-24.817c1.163-1.889,2.498-3.654,3.999-5.284
			c-25.702-23.685-52.239-54.439-64.195-88.373c-17.761,3.926-2.683,54.654-15.144,61.528
			c-35.346,6.543-78.298,43.198-78.298,43.198s-38.211-2.614-67.011-27.491c5.235,87.714,106.035,137.375,109.964,138.071
			c2.786,0.497,90.768-39.58,141.615-62.887c-2.067,0.361-4.191,0.58-6.367,0.58C649.06,209.017,633.161,193.559,633.161,174.493z"
			/>
		<path fill="#DDCAB8" d="M701.871,186.651c-2.15,5.549-5.705,10.419-10.27,14.179c11.536-5.297,18.838-8.667,18.838-8.667
			S707.228,190.223,701.871,186.651z"/>
		<path fill="#DDCAB8" d="M691.601,200.831c-4.847,2.233-10.416,4.787-16.565,7.607C681.278,207.338,686.95,204.664,691.601,200.831
			z"/>
		<path fill="#DDCAB8" d="M701.871,186.651c-3.068-2.044-6.871-4.651-11.185-7.736c-15.104-2.952-32.623-4.993-50.824-4.23
			c-0.523-2.359-0.815-4.801-0.815-7.312c0-6.477,1.869-12.517,5.059-17.698c-6.715,6.275-10.946,15.044-10.946,24.817
			c0,19.066,15.899,34.524,35.508,34.524c2.177,0,4.3-0.219,6.367-0.58c6.149-2.819,11.718-5.374,16.565-7.607
			C696.166,197.071,699.721,192.2,701.871,186.651z"/>
		<path fill="#F37B0A" d="M649.348,145.548c-0.414-0.378-0.828-0.775-1.242-1.156c-1.5,1.63-2.836,3.396-3.999,5.284
			C645.73,148.158,647.453,146.747,649.348,145.548z"/>
		<path fill="#F37B0A" d="M644.107,149.676c-3.19,5.181-5.059,11.221-5.059,17.698c0,2.511,0.292,4.953,0.815,7.312
			c18.202-0.762,35.72,1.279,50.824,4.23c-11.241-8.037-26.08-19.424-41.339-33.368C647.453,146.747,645.73,148.158,644.107,149.676
			z"/>
	</g>
	<path fill="#AA9883" d="M189.046,489.234c7.341,5.685,15.544,10.181,24.367,13.023c5.436,4.33,11.99,9.187,16.956,11.811
		c0.931,0.497,1.743,0.948,2.518,1.381c5.48,6.937,11.589,13.219,18.718,18.556c-7.166,19.662-13.543,70.854-1.782,77.387
		c22.23,12.347-45.825,15.448-43.155,1.925c-4.665-9.641-21.657-52.371-21.15-87.426
		C185.643,517.188,186.949,504.142,189.046,489.234z"/>
	<path fill="#AA9883" d="M445.853,484.655c7.335,5.685,15.538,10.181,24.363,13.02c5.433,4.327,11.993,9.187,16.953,11.811
		c0.934,0.497,1.746,0.944,2.521,1.381c5.473,6.938,11.589,13.219,18.718,18.556c-7.169,19.662-13.543,70.851-1.782,77.387
		c22.223,12.351-45.825,15.448-43.155,1.922c-4.665-9.641-21.653-52.368-21.15-87.422
		C442.447,512.603,443.756,499.56,445.853,484.655z"/>
	<path fill="#F99C34" d="M204.835,317.185c-2.617,0-41.24-35.349-25.527-115.34c-94.26,47.922-45.169,142.828-45.169,142.828
		L204.835,317.185z"/>
	<path fill="#DDCAB8" d="M96.863,513.09c0.623-43.396,25.019-173.877,41.164-191.982c33.818-30.545,283.675,15.842,314.664-28.233
		c30.986-44.076,47.127-67.982,47.127-67.982l154.473,72.434c0,0,1.531,94.691-6.977,123.057
		c-8.508,28.369-42.986,54.243-58.474,86.468c-15.491,32.225,10.691,97.683,32.944,117.319
		c22.257,19.639-66.325,17.234-65.238,0.437c0.841-12.914-50.615-63.682-74.492-86.505c-3.561,1.033-7.319,1.613-11.214,1.613
		c-9.005,0-17.287-2.988-23.996-7.987c-50.637,9.617-172.526,27.272-250.794-6.407c-5.476,4.512-12.178,7.56-19.513,8.67
		c-2.197,28.565,13.387,77.868,26.112,84.944c27.514,15.286-56.728,19.126-53.421,2.375
		C143.456,609.381,96.24,556.487,96.863,513.09z"/>
	<path fill="#409F91" d="M505.314,318.027c-9.422-6.871-32.878-29.174-46.295-42.88c-13.421-13.729,21.919-44.562,29.31-35.028
		c-1.69,4.724-7.756,13.736-7.756,13.736c75.264,76.294,165.095,65.616,175.766,62.615c10.688-3.028,20.514,25.676,4.678,30.4
		C645.183,351.6,586.196,377.06,505.314,318.027z"/>
	<path fill="#F99C34" d="M737.86,192.82c0,0-12.384-5.4-31.414-10.34c-5.768,11.486-17.86,19.421-31.891,19.421
		c-17.029,0-31.241-11.662-34.693-27.216c-21.879,0.914-44.665,5.847-65.215,18.135c-68.956,41.236-64.136,108.436-64.136,108.436
		s0.136,0.017,0.275,0.037c-0.007,0.285-0.073,0.55-0.073,0.838c0,13.014,8.654,23.562,19.321,23.562
		c3.538,0,6.811-1.239,9.661-3.26c3.508,5.914,9.18,9.806,15.63,9.806c6.063,0,11.41-3.475,14.948-8.806
		c3.121,7.895,9.687,13.388,17.36,13.388c5.672,0,10.728-3.038,14.259-7.782c3.538,4.744,8.587,7.782,14.265,7.782
		c4.466,0,8.534-1.931,11.804-5.035c3.277,3.104,7.338,5.035,11.811,5.035c9.329,0,17.111-8.067,18.924-18.794
		C757.867,272.523,737.86,192.82,737.86,192.82z"/>
	<path fill="#F37B0A" d="M674.556,201.901c14.031,0,26.123-7.934,31.891-19.421c-17.877-4.638-41.617-8.839-66.584-7.795
		C643.315,190.239,657.527,201.901,674.556,201.901z"/>
	<path fill="#533420" d="M743.687,180.797c-13.318-0.805-55.184,12.487-53.812,18.987c1.375,6.494,35.3,19.487,42.343,16.912
		C739.268,214.132,752.374,180.015,743.687,180.797z"/>
	<g>
		<path fill="#2D1306" d="M670.448,154.95c-6.298,2.77-8.975,10.568-5.967,17.426c3.002,6.851,10.549,10.168,16.843,7.414
			c6.308-2.77,8.978-10.561,5.977-17.419C684.296,155.519,676.753,152.197,670.448,154.95z"/>
		<path fill="#FDFEFF" d="M678.913,155.506c-3.81,1.66-5.427,6.374-3.611,10.525c1.816,4.141,6.374,6.142,10.184,4.476
			c3.81-1.666,5.427-6.381,3.611-10.525C687.278,155.844,682.716,153.837,678.913,155.506z"/>
	</g>
	<path fill="#533420" d="M689.607,302.721c0.119,0,0.202,0,0.255,0l-0.036-5.235c-0.497,0.076-45.202,0.056-54.25-21.425
		l-4.827,2.034C640.877,302.144,685.399,302.721,689.607,302.721z"/>
	<g>
		<path fill="#F37B0A" d="M525.814,206.214c0,19.066,15.895,34.528,35.508,34.528c19.612,0,35.508-15.462,35.508-34.528
			c0-19.073-15.896-34.531-35.508-34.531C541.71,171.683,525.814,187.142,525.814,206.214z"/>
		<g>
			<path fill="#2D1306" d="M557.214,193.791c-6.301,2.766-8.971,10.565-5.963,17.426c3.002,6.845,10.545,10.168,16.843,7.411
				c6.305-2.766,8.978-10.562,5.973-17.42C571.063,194.357,563.516,191.034,557.214,193.791z"/>
			<path fill="#FDFEFF" d="M565.682,194.344c-3.81,1.663-5.43,6.374-3.614,10.525c1.816,4.141,6.377,6.142,10.187,4.479
				c3.807-1.67,5.427-6.384,3.611-10.529C574.044,194.682,569.485,192.674,565.682,194.344z"/>
		</g>
	</g>
</g>
</svg>
